<?xml version="1.0" encoding="utf-8"?>
<!-- Generator: Adobe Illustrator 25.1.0, SVG Export Plug-In . SVG Version: 6.00 Build 0)  -->
<svg version="1.1" id="Livello_1" xmlns="http://www.w3.org/2000/svg" xmlns:xlink="http://www.w3.org/1999/xlink" x="0px" y="0px"
	 viewBox="0 0 1272 438.1" style="enable-background:new 0 0 1272 438.1;" xml:space="preserve">
<style type="text/css">
	.st0{fill:#CCCCCC;}
	.st1{fill:#FF6600;}
	.st2{fill:#71B62C;}
	.st3{fill:#549116;}
</style>
<g>
	<g>
		<g>
			<path class="st0" d="M836.6,279.1h-23.6v-71.3h23.6v8h-15.6v22.6h9v8h-9v24.7h15.6V279.1z"/>
			<path class="st0" d="M876.7,279.1h-7.1l-13-43.4v43.4H849v-71.3h8l12.2,44v-44h7.5V279.1z"/>
			<path class="st0" d="M918.3,279.1H913l-0.8-3c-1,1.4-2.2,2.5-3.5,3.2c-1.4,0.7-3.2,1.1-5.5,1.1c-1.6,0-3.2-0.3-4.8-0.8
				c-1.6-0.5-3-1.4-4.2-2.5c-1.2-1.2-2.2-2.6-3-4.3c-0.8-1.7-1.1-3.8-1.1-6.1v-46c0-2.2,0.4-4.1,1.1-5.8c0.7-1.7,1.7-3.1,3-4.3
				c1.3-1.2,2.7-2.1,4.4-2.7c1.7-0.6,3.4-1,5.3-1c1.9,0,3.7,0.3,5.4,1c1.7,0.6,3.1,1.6,4.4,2.8c1.2,1.2,2.2,2.7,3,4.4
				c0.7,1.7,1.1,3.6,1.1,5.7v2.4h-8v-2.4c0-2.1-0.6-3.5-1.7-4.5c-1.2-0.9-2.5-1.4-4.1-1.4c-1.6,0-3,0.5-4.1,1.5
				c-1.1,1-1.7,2.4-1.7,4.4v46c0,1.6,0.6,3,1.9,4.1c1.2,1.1,2.7,1.7,4.3,1.7c1.6,0,3.1-0.6,4.3-1.7c1.2-1.1,1.9-2.5,1.9-4.1v-19.4
				h-6.6v-7.4h14.7V279.1z"/>
			<path class="st0" d="M939.5,279.1h-8v-71.3h8V279.1z"/>
			<path class="st0" d="M980.6,279.1h-7.1l-13-43.4v43.4h-7.6v-71.3h8l12.2,44v-44h7.5V279.1z"/>
			<path class="st0" d="M1017.6,279.1h-23.6v-71.3h23.6v8h-15.6v22.6h9v8h-9v24.7h15.6V279.1z"/>
			<path class="st0" d="M1053.6,279.1H1030v-71.3h23.6v8H1038v22.6h9v8h-9v24.7h15.6V279.1z"/>
			<path class="st0" d="M1093.6,279.1h-8v-25.1c0-1.6-0.1-3-0.4-4c-0.2-1-0.6-1.8-1.2-2.4c-0.5-0.5-1.3-0.9-2.1-1.1
				c-0.9-0.2-2-0.3-3.2-0.3h-4.7v32.9h-8v-71.3h13.8c4.4,0,7.7,1.2,10,3.6c2.3,2.4,3.4,6,3.4,10.7v9.8c0,2.5-0.6,4.6-1.7,6.2
				c-1.2,1.6-2.7,2.7-4.6,3.4c1.9,0.6,3.5,1.8,4.8,3.6c1.3,1.8,2,4.4,2,7.7V279.1z M1085.1,223.5c0-2.5-0.4-4.5-1.3-5.7
				c-0.9-1.3-2.8-1.9-5.7-1.9h-4.2v22.9h4.2c2.4,0,4.2-0.6,5.3-1.7c1.1-1.2,1.7-3.2,1.7-6V223.5z"/>
			<path class="st0" d="M1114.8,279.1h-8v-71.3h8V279.1z"/>
			<path class="st0" d="M1155.9,279.1h-7.1l-13-43.4v43.4h-7.6v-71.3h8l12.2,44v-44h7.5V279.1z"/>
			<path class="st0" d="M1197.6,279.1h-5.4l-0.8-3c-1,1.4-2.2,2.5-3.5,3.2c-1.4,0.7-3.2,1.1-5.5,1.1c-1.6,0-3.2-0.3-4.8-0.8
				c-1.6-0.5-3-1.4-4.2-2.5c-1.2-1.2-2.2-2.6-3-4.3c-0.8-1.7-1.1-3.8-1.1-6.1v-46c0-2.2,0.4-4.1,1.1-5.8c0.7-1.7,1.7-3.1,3-4.3
				c1.3-1.2,2.7-2.1,4.4-2.7c1.7-0.6,3.4-1,5.3-1c1.9,0,3.7,0.3,5.4,1c1.7,0.6,3.1,1.6,4.4,2.8c1.2,1.2,2.2,2.7,3,4.4
				c0.7,1.7,1.1,3.6,1.1,5.7v2.4h-8v-2.4c0-2.1-0.6-3.5-1.7-4.5c-1.2-0.9-2.5-1.4-4.1-1.4c-1.6,0-3,0.5-4.1,1.5
				c-1.1,1-1.7,2.4-1.7,4.4v46c0,1.6,0.6,3,1.9,4.1c1.2,1.1,2.7,1.7,4.3,1.7s3.1-0.6,4.3-1.7c1.2-1.1,1.9-2.5,1.9-4.1v-19.4h-6.6
				v-7.4h14.7V279.1z"/>
		</g>
		<rect x="777.6" y="180.9" class="st0" width="2" height="99.3"/>
		<g>
			<path class="st1" d="M422.9,228.8c0-20.3-16.5-24.1-33.5-24.1c-8.2,0-16.5,1.4-22.8,5c-3.1,1.8-5.7,4.1-7.6,7.1v-10.1h-14.1v-3.2
				c0-6.5,3.3-7.2,8.7-7.2c2.1,0,4.1,0.1,6.4,0.4v-16.6c-3.7-0.1-7.6-0.4-11.3-0.4c-20,0-27.2,6.4-27.2,27h-11.3v15.2h11.3v56.5
				h23.5v-56.5h11.7c-0.7,2.1-1.1,4.4-1.2,6.9h22c1.1-6.1,5.3-9,11.8-9c4.8,0,11.3,2.1,11.3,7.5c0,4.4-2.2,5.8-6.2,6.6
				c-16.3,3.3-41.8,1.5-41.8,24.9c0,14.8,10.8,21.7,24.5,21.7c8.6,0,17.6-2.5,23.6-8.8c0.3,2.3,0.6,4.6,1.4,6.8h23.6
				c-2.8-5.7-2.8-12.3-2.8-18.4V228.8z M385.8,266.2c-5.3,0-9.8-2.3-9.8-8.2c0-5.7,4.4-7.9,9.7-9.1c5.1-1.4,11.2-1.8,14.5-3.9
				C400.8,259.8,397,266.2,385.8,266.2z"/>
			<path class="st1" d="M461.3,262.7c-10,0-14-9.5-14-18.8c0-10,2.1-21.2,15.2-21.2c5.9,0,11.3,4.3,11.5,10.4h22.8
				c-1.7-18.9-17.6-28.3-35.4-28.3c-23.1,0-37.6,16.3-37.6,39.1c0,22,16,36.8,37.6,36.8c19.1,0,34-11.1,36.1-30.3h-22.8
				C473.6,258,469.5,262.7,461.3,262.7z"/>
			<rect x="499.1" y="179.9" class="st1" width="23.5" height="18"/>
			<rect x="499.1" y="206.9" class="st1" width="23.5" height="71.8"/>
			<rect x="528.9" y="179.9" class="st1" width="23.5" height="98.7"/>
			<path class="st1" d="M593.2,204.8c-21.2,0-38.7,15.8-38.7,37.7c0,24.1,15.9,38.2,39.3,38.2c16,0,31.4-7.2,35.7-23.8h-22
				c-2.2,5.3-7.7,7.9-13.4,7.9c-10,0-15.6-6.5-16-16.3h52.7C631.8,224.1,618.9,204.8,593.2,204.8z M578,235.3
				c1.4-8.7,6.9-14.7,15.2-14.7c7.9,0,13.5,6.6,14,14.7H578z"/>
			<rect x="632.5" y="252.9" class="st1" width="25.7" height="25.7"/>
			<rect x="664.8" y="179.9" class="st1" width="23.5" height="18"/>
			<path class="st1" d="M737.1,222.1v-15.2h-14.5v-21.7h-23.5v21.7h-10.8h-1.1h-22.4v71.8h23.5v-56.5h10.8V254
				c0,19.5,5.1,25.3,25.2,25.3c4.3,0,8.6-0.6,12.9-0.7v-17.3c-2.1,0-4.1,0.3-6.1,0.3c-5.1,0-8.4-1.2-8.4-6.9v-32.6H737.1z"/>
			<g>
				<g>
					<g>
						<path class="st2" d="M84.1,148.9c-0.6,4.8-4.9,8.2-9.7,7.7c0.4,3.2,1.3,6.3,2.6,9.2c3.8-2.9,9.3-2.2,12.3,1.6
							c3,3.8,2.3,9.3-1.4,12.3c2.5,1.9,5.3,3.5,8.3,4.7c0.7-4.8,5-8.1,9.8-7.5c4.8,0.6,8.2,4.9,7.7,9.7c3.2-0.4,6.3-1.3,9.2-2.6
							c-2.9-3.8-2.2-9.3,1.6-12.3c3.8-3,9.3-2.3,12.3,1.4c1.9-2.5,3.5-5.3,4.7-8.3c-4.8-0.7-8.1-5-7.5-9.8c0.6-4.8,4.9-8.2,9.7-7.7
							c-0.4-3.2-1.3-6.3-2.6-9.2c-3.8,2.9-9.3,2.2-12.3-1.6c-3-3.8-2.3-9.3,1.4-12.3c-2.5-1.9-5.3-3.5-8.3-4.7
							c-0.7,4.8-5,8.1-9.8,7.5c-4.8-0.6-8.2-4.9-7.7-9.7c-3.2,0.4-6.3,1.3-9.2,2.6c2.9,3.8,2.2,9.3-1.6,12.3
							c-3.8,3-9.3,2.3-12.3-1.4c-1.9,2.5-3.5,5.3-4.7,8.3C81.3,139.8,84.7,144.1,84.1,148.9z M110.7,138.3c7.5,0.9,12.9,7.8,12,15.3
							c-0.9,7.5-7.8,12.9-15.3,12c-7.5-0.9-12.9-7.8-12-15.3C96.3,142.8,103.2,137.4,110.7,138.3z"/>
					</g>
					<g>
						<path class="st3" d="M137.8,122.4c0.9,3-0.9,6.2-3.9,7.1c1.1,1.8,2.4,3.5,3.9,4.9c1.6-2.7,5-3.7,7.8-2.2
							c2.8,1.5,3.8,5,2.3,7.8c2,0.5,4.1,0.8,6.2,0.7c-0.8-3,0.9-6.2,4-7.1c3-0.9,6.2,0.9,7.1,3.9c1.8-1.1,3.5-2.4,4.9-3.9
							c-2.7-1.6-3.7-5-2.2-7.8c1.5-2.8,5-3.8,7.8-2.3c0.5-2,0.8-4.1,0.7-6.2c-3,0.8-6.2-0.9-7.1-4c-0.9-3,0.9-6.2,3.9-7.1
							c-1.1-1.8-2.4-3.5-3.9-4.9c-1.6,2.7-5,3.7-7.8,2.2c-2.8-1.5-3.8-5-2.3-7.8c-2-0.5-4.1-0.8-6.2-0.7c0.8,3-0.9,6.2-4,7.1
							c-3,0.9-6.2-0.9-7.1-3.9c-1.8,1.1-3.5,2.4-4.9,3.9c2.7,1.6,3.7,5,2.2,7.8c-1.5,2.8-5,3.8-7.8,2.3c-0.5,2-0.8,4.1-0.7,6.2
							C133.8,117.6,136.9,119.4,137.8,122.4z M151.2,109.2c4.8-1.4,9.8,1.4,11.2,6.2c1.4,4.8-1.4,9.8-6.2,11.2
							c-4.8,1.4-9.8-1.4-11.2-6.2C143.6,115.6,146.4,110.6,151.2,109.2z"/>
					</g>
				</g>
				<g>
					<g>
						<path class="st1" d="M289.6,238.9c0-5.3,0-34.1,0-34.1c0-35.5-28.8-64.2-64.2-64.2h-38.1c-35.4,0-64.2,28.7-64.2,64.2l0,38.1
							c0,35.5,28.7,64.2,64.2,64.3h125.1C312.3,307.1,289.6,300.4,289.6,238.9z M182.5,278.5c-10.6,0-19.7-5.2-25.5-13.4
							c-3.5-5.1-5.5-10.9-5.5-17.7v-47.3c0-10.7,5.2-19.8,13.4-25.5c5.1-3.5,10.9-5.5,17.6-5.5h47.3h0c10.7,0,19.8,5.2,25.5,13.4
							c3.5,5.1,5.5,10.9,5.5,17.6c0,0,0,35.6,0,42.3c0,13.2,0.7,25.1,2.1,36L182.5,278.5z"/>
						<path class="st1" d="M176.7,218.7c-2.3,4.9-4.6,9.8-6.9,14.7c23.4,11,50.5,11,74,0c-2.3-4.9-4.6-9.8-6.9-14.7
							C217.8,227.6,195.8,227.6,176.7,218.7z"/>
					</g>
				</g>
			</g>
		</g>
	</g>
</g>
</svg>
