<?xml version="1.0" encoding="utf-8"?>
<!-- Generator: Adobe Illustrator 25.1.0, SVG Export Plug-In . SVG Version: 6.00 Build 0)  -->
<svg version="1.1" id="Livello_1" xmlns="http://www.w3.org/2000/svg" xmlns:xlink="http://www.w3.org/1999/xlink" x="0px" y="0px"
	 viewBox="0 0 1440 798" style="enable-background:new 0 0 1440 798;" xml:space="preserve">
<style type="text/css">
	.st0{fill:#ECF1F4;}
	.st1{fill:#FF6600;}
	.st2{fill:#CBCBCB;}
	.st3{fill:#80B245;}
	.st4{fill:#638E30;}
</style>
<g>
	<rect y="0.2" class="st0" width="1440" height="797.7"/>
	<rect y="0" class="st1" width="14.2" height="798"/>
</g>
<g>
	<g>
		<g>
			<path class="st2" d="M227.4,751.6h-5.7v-17.2h5.7v1.9h-3.7v5.4h2.2v1.9h-2.2v5.9h3.7V751.6z"/>
			<path class="st2" d="M237.1,751.6h-1.7l-3.1-10.5v10.5h-1.8v-17.2h1.9l2.9,10.6v-10.6h1.8V751.6z"/>
			<path class="st2" d="M247.1,751.6h-1.3l-0.2-0.7c-0.2,0.3-0.5,0.6-0.9,0.8c-0.3,0.2-0.8,0.3-1.3,0.3c-0.4,0-0.8-0.1-1.2-0.2
				c-0.4-0.1-0.7-0.3-1-0.6c-0.3-0.3-0.5-0.6-0.7-1c-0.2-0.4-0.3-0.9-0.3-1.5v-11.1c0-0.5,0.1-1,0.3-1.4c0.2-0.4,0.4-0.8,0.7-1
				c0.3-0.3,0.7-0.5,1.1-0.7c0.4-0.2,0.8-0.2,1.3-0.2c0.5,0,0.9,0.1,1.3,0.2c0.4,0.2,0.8,0.4,1.1,0.7c0.3,0.3,0.5,0.6,0.7,1.1
				c0.2,0.4,0.3,0.9,0.3,1.4v0.6H245v-0.6c0-0.5-0.1-0.9-0.4-1.1c-0.3-0.2-0.6-0.3-1-0.3c-0.4,0-0.7,0.1-1,0.4
				c-0.3,0.2-0.4,0.6-0.4,1.1v11.1c0,0.4,0.1,0.7,0.4,1c0.3,0.3,0.6,0.4,1,0.4c0.4,0,0.7-0.1,1-0.4c0.3-0.3,0.4-0.6,0.4-1v-4.7h-1.6
				v-1.8h3.5V751.6z"/>
			<path class="st2" d="M252.2,751.6h-1.9v-17.2h1.9V751.6z"/>
			<path class="st2" d="M262.1,751.6h-1.7l-3.1-10.5v10.5h-1.8v-17.2h1.9l2.9,10.6v-10.6h1.8V751.6z"/>
			<path class="st2" d="M271,751.6h-5.7v-17.2h5.7v1.9h-3.7v5.4h2.2v1.9h-2.2v5.9h3.7V751.6z"/>
			<path class="st2" d="M279.7,751.6H274v-17.2h5.7v1.9h-3.7v5.4h2.2v1.9h-2.2v5.9h3.7V751.6z"/>
			<path class="st2" d="M289.3,751.6h-1.9v-6.1c0-0.4,0-0.7-0.1-1c-0.1-0.2-0.2-0.4-0.3-0.6c-0.1-0.1-0.3-0.2-0.5-0.3
				c-0.2-0.1-0.5-0.1-0.8-0.1h-1.1v7.9h-1.9v-17.2h3.3c1.1,0,1.9,0.3,2.4,0.9c0.5,0.6,0.8,1.4,0.8,2.6v2.4c0,0.6-0.1,1.1-0.4,1.5
				c-0.3,0.4-0.7,0.7-1.1,0.8c0.5,0.1,0.8,0.4,1.2,0.9c0.3,0.4,0.5,1.1,0.5,1.9V751.6z M287.3,738.2c0-0.6-0.1-1.1-0.3-1.4
				c-0.2-0.3-0.7-0.5-1.4-0.5h-1v5.5h1c0.6,0,1-0.1,1.3-0.4c0.3-0.3,0.4-0.8,0.4-1.4V738.2z"/>
			<path class="st2" d="M294.5,751.6h-1.9v-17.2h1.9V751.6z"/>
			<path class="st2" d="M304.4,751.6h-1.7l-3.1-10.5v10.5h-1.8v-17.2h1.9l2.9,10.6v-10.6h1.8V751.6z"/>
			<path class="st2" d="M314.4,751.6h-1.3l-0.2-0.7c-0.2,0.3-0.5,0.6-0.9,0.8c-0.3,0.2-0.8,0.3-1.3,0.3c-0.4,0-0.8-0.1-1.2-0.2
				c-0.4-0.1-0.7-0.3-1-0.6c-0.3-0.3-0.5-0.6-0.7-1c-0.2-0.4-0.3-0.9-0.3-1.5v-11.1c0-0.5,0.1-1,0.3-1.4c0.2-0.4,0.4-0.8,0.7-1
				c0.3-0.3,0.7-0.5,1.1-0.7c0.4-0.2,0.8-0.2,1.3-0.2c0.5,0,0.9,0.1,1.3,0.2c0.4,0.2,0.8,0.4,1.1,0.7c0.3,0.3,0.5,0.6,0.7,1.1
				c0.2,0.4,0.3,0.9,0.3,1.4v0.6h-1.9v-0.6c0-0.5-0.1-0.9-0.4-1.1c-0.3-0.2-0.6-0.3-1-0.3c-0.4,0-0.7,0.1-1,0.4
				c-0.3,0.2-0.4,0.6-0.4,1.1v11.1c0,0.4,0.1,0.7,0.4,1c0.3,0.3,0.6,0.4,1,0.4c0.4,0,0.7-0.1,1-0.4c0.3-0.3,0.4-0.6,0.4-1v-4.7h-1.6
				v-1.8h3.5V751.6z"/>
		</g>
		<rect x="213.2" y="727.9" class="st2" width="0.5" height="23.9"/>
		<g>
			<path class="st1" d="M127.7,739.5c0-4.9-4-5.8-8.1-5.8c-2,0-4,0.3-5.5,1.2c-0.7,0.4-1.4,1-1.8,1.7v-2.4h-3.4v-0.8
				c0-1.6,0.8-1.7,2.1-1.7c0.5,0,1,0,1.5,0.1v-4c-0.9,0-1.8-0.1-2.7-0.1c-4.8,0-6.6,1.5-6.6,6.5h-2.7v3.7h2.7v13.6h5.7v-13.6h2.8
				c-0.2,0.5-0.3,1.1-0.3,1.7h5.3c0.3-1.5,1.3-2.2,2.8-2.2c1.2,0,2.7,0.5,2.7,1.8c0,1.1-0.5,1.4-1.5,1.6c-3.9,0.8-10.1,0.4-10.1,6
				c0,3.6,2.6,5.2,5.9,5.2c2.1,0,4.2-0.6,5.7-2.1c0.1,0.6,0.1,1.1,0.3,1.6h5.7c-0.7-1.4-0.7-3-0.7-4.4V739.5z M118.8,748.4
				c-1.3,0-2.4-0.6-2.4-2c0-1.4,1.1-1.9,2.3-2.2c1.2-0.3,2.7-0.4,3.5-0.9C122.4,746.9,121.5,748.4,118.8,748.4z"/>
			<path class="st1" d="M137,747.6c-2.4,0-3.4-2.3-3.4-4.5c0-2.4,0.5-5.1,3.7-5.1c1.4,0,2.7,1,2.8,2.5h5.5c-0.4-4.6-4.2-6.8-8.5-6.8
				c-5.6,0-9.1,3.9-9.1,9.4c0,5.3,3.9,8.9,9.1,8.9c4.6,0,8.2-2.7,8.7-7.3h-5.5C139.9,746.5,138.9,747.6,137,747.6z"/>
			<rect x="146.1" y="727.7" class="st1" width="5.7" height="4.3"/>
			<rect x="146.1" y="734.2" class="st1" width="5.7" height="17.3"/>
			<rect x="153.3" y="727.7" class="st1" width="5.7" height="23.8"/>
			<path class="st1" d="M168.8,733.7c-5.1,0-9.3,3.8-9.3,9.1c0,5.8,3.8,9.2,9.5,9.2c3.9,0,7.6-1.7,8.6-5.7h-5.3
				c-0.5,1.3-1.9,1.9-3.2,1.9c-2.4,0-3.8-1.6-3.9-3.9h12.7C178.1,738.3,175,733.7,168.8,733.7z M165.1,741c0.3-2.1,1.7-3.5,3.7-3.5
				c1.9,0,3.3,1.6,3.4,3.5H165.1z"/>
			<rect x="178.2" y="745.2" class="st1" width="6.2" height="6.2"/>
			<rect x="186" y="727.7" class="st1" width="5.7" height="4.3"/>
			<path class="st1" d="M203.4,737.8v-3.7h-3.5v-5.2h-5.7v5.2h-2.6h-0.3H186v17.3h5.7v-13.6h2.6v7.7c0,4.7,1.2,6.1,6.1,6.1
				c1,0,2.1-0.1,3.1-0.2v-4.2c-0.5,0-1,0.1-1.5,0.1c-1.2,0-2-0.3-2-1.7v-7.9H203.4z"/>
			<g>
				<g>
					<g>
						<path class="st3" d="M46.1,720.2c-0.1,1.2-1.2,2-2.3,1.9c0.1,0.8,0.3,1.5,0.6,2.2c0.9-0.7,2.2-0.5,3,0.4
							c0.7,0.9,0.6,2.2-0.3,3c0.6,0.5,1.3,0.9,2,1.1c0.2-1.1,1.2-2,2.4-1.8c1.2,0.1,2,1.2,1.9,2.3c0.8-0.1,1.5-0.3,2.2-0.6
							c-0.7-0.9-0.5-2.2,0.4-3c0.9-0.7,2.2-0.6,3,0.3c0.5-0.6,0.9-1.3,1.1-2c-1.1-0.2-2-1.2-1.8-2.4c0.1-1.2,1.2-2,2.3-1.9
							c-0.1-0.8-0.3-1.5-0.6-2.2c-0.9,0.7-2.2,0.5-3-0.4s-0.6-2.2,0.3-3c-0.6-0.5-1.3-0.9-2-1.1c-0.2,1.1-1.2,2-2.4,1.8
							c-1.2-0.1-2-1.2-1.9-2.3c-0.8,0.1-1.5,0.3-2.2,0.6c0.7,0.9,0.5,2.2-0.4,3c-0.9,0.7-2.2,0.6-3-0.3c-0.5,0.6-0.9,1.3-1.1,2
							C45.4,718,46.2,719,46.1,720.2z M52.5,717.6c1.8,0.2,3.1,1.9,2.9,3.7c-0.2,1.8-1.9,3.1-3.7,2.9c-1.8-0.2-3.1-1.9-2.9-3.7
							S50.7,717.4,52.5,717.6z"/>
					</g>
					<g>
						<path class="st4" d="M59,713.8c0.2,0.7-0.2,1.5-0.9,1.7c0.3,0.4,0.6,0.8,0.9,1.2c0.4-0.7,1.2-0.9,1.9-0.5
							c0.7,0.4,0.9,1.2,0.6,1.9c0.5,0.1,1,0.2,1.5,0.2c-0.2-0.7,0.2-1.5,1-1.7c0.7-0.2,1.5,0.2,1.7,0.9c0.4-0.3,0.8-0.6,1.2-0.9
							c-0.7-0.4-0.9-1.2-0.5-1.9c0.4-0.7,1.2-0.9,1.9-0.6c0.1-0.5,0.2-1,0.2-1.5c-0.7,0.2-1.5-0.2-1.7-1c-0.2-0.7,0.2-1.5,0.9-1.7
							c-0.3-0.4-0.6-0.8-0.9-1.2c-0.4,0.7-1.2,0.9-1.9,0.5c-0.7-0.4-0.9-1.2-0.6-1.9c-0.5-0.1-1-0.2-1.5-0.2c0.2,0.7-0.2,1.5-1,1.7
							c-0.7,0.2-1.5-0.2-1.7-0.9c-0.4,0.3-0.8,0.6-1.2,0.9c0.7,0.4,0.9,1.2,0.5,1.9c-0.4,0.7-1.2,0.9-1.9,0.6
							c-0.1,0.5-0.2,1-0.2,1.5C58,712.6,58.8,713.1,59,713.8z M62.2,710.6c1.2-0.3,2.4,0.3,2.7,1.5c0.3,1.2-0.3,2.4-1.5,2.7
							c-1.2,0.3-2.4-0.3-2.7-1.5C60.4,712.2,61.1,711,62.2,710.6z"/>
					</g>
				</g>
				<g>
					<g>
						<path class="st1" d="M95.6,741.9c0-1.3,0-8.2,0-8.2c0-8.5-6.9-15.5-15.5-15.5h-9.2c-8.5,0-15.5,6.9-15.5,15.5l0,9.2
							c0,8.5,6.9,15.5,15.5,15.5h30.1C101.1,758.3,95.6,756.7,95.6,741.9z M69.8,751.4c-2.6,0-4.8-1.3-6.1-3.2
							c-0.8-1.2-1.3-2.6-1.3-4.3v-11.4c0-2.6,1.3-4.8,3.2-6.2c1.2-0.8,2.6-1.3,4.2-1.3h11.4h0c2.6,0,4.8,1.3,6.2,3.2
							c0.8,1.2,1.3,2.6,1.3,4.3c0,0,0,8.6,0,10.2c0,3.2,0.2,6.1,0.5,8.7L69.8,751.4z"/>
						<path class="st1" d="M68.4,737c-0.6,1.2-1.1,2.4-1.7,3.5c5.6,2.7,12.2,2.7,17.8,0c-0.6-1.2-1.1-2.4-1.7-3.5
							C78.3,739.2,73,739.2,68.4,737z"/>
					</g>
				</g>
			</g>
		</g>
	</g>
</g>
</svg>
